<svg id="Layer_1" data-name="Layer 1" xmlns="http://www.w3.org/2000/svg" viewBox="0 0 77.84 90.95"><defs><style>.cls-1{fill:#fff;}</style></defs><path class="cls-1" d="M1.13,37.12H76.72a1.12,1.12,0,0,1,1.12,1.12V89.83A1.12,1.12,0,0,1,76.72,91H1.13A1.12,1.12,0,0,1,0,89.83V38.24a1.13,1.13,0,0,1,1.13-1.12Z"/><path class="cls-1" d="M76.1,27.44H68A18.32,18.32,0,0,0,49.61,12.05,18.36,18.36,0,0,0,31.2,27.44H23.12C23.61,13.75,35.26,2.81,49.61,2.81S75.61,13.75,76.1,27.44Z" transform="translate(-10.69 -2.81)"/><path class="cls-1" d="M31.2,27.44c-.06.6-.11,1.21-.17,1.87V46.73a27.21,27.21,0,0,1-3.3-3.85,16.69,16.69,0,0,1-1.37-2.09,25.84,25.84,0,0,1-2.26-5.27c-.16-.5-.27-1-.38-1.49a21.88,21.88,0,0,1-.49-2.74,24.28,24.28,0,0,1-.17-2.86,5.49,5.49,0,0,1,.06-1Z" transform="translate(-10.69 -2.81)"/><path class="cls-1" d="M76.16,28.43c0,.82-.06,1.59-.11,2.42s-.22,1.64-.39,2.41A21.38,21.38,0,0,1,74,38.49a17,17,0,0,1-1.15,2.25,24.21,24.21,0,0,1-4.67,5.94V30a2.46,2.46,0,0,0-.06-.66A10.25,10.25,0,0,0,68,27.44H76.1A5.49,5.49,0,0,1,76.16,28.43Z" transform="translate(-10.69 -2.81)"/><path class="cls-1" d="M76.16,28.43v36H23.06v-36a24.28,24.28,0,0,0,.17,2.86A21.88,21.88,0,0,0,23.72,34c.11.5.22,1,.38,1.49a25.84,25.84,0,0,0,2.26,5.27,16.69,16.69,0,0,0,1.37,2.09A27.21,27.21,0,0,0,31,46.73V55.2H68.19V46.68a24.21,24.21,0,0,0,4.67-5.94A17,17,0,0,0,74,38.49a21.38,21.38,0,0,0,1.65-5.23c.17-.77.28-1.59.39-2.41S76.16,29.25,76.16,28.43Z" transform="translate(-10.69 -2.81)"/></svg>