<svg id="Layer_1" data-name="Layer 1" xmlns="http://www.w3.org/2000/svg" viewBox="0 0 90.5 93.29"><defs><style>.cls-1{fill:#fff;}</style></defs><polygon class="cls-1" points="0 31.83 0 32.6 0 64.19 15.33 64.19 38.87 89.89 41.96 89.89 41.96 6.13 39.17 6.13 15.02 32.14 0 31.83"/><path class="cls-1" d="M54.22,3.4V15.2c16.21,3.73,28.22,17.9,28.22,34.85s-12,31.11-28.22,34.85V96.69C77.33,93,94.86,73.53,94.86,50.05S77.33,7.09,54.22,3.4Z" transform="translate(-4.36 -3.4)"/><path class="cls-1" d="M74.7,48.26A23.28,23.28,0,0,1,54.22,71.32V25.15A23.32,23.32,0,0,1,74.7,48.26Z" transform="translate(-4.36 -3.4)"/></svg>